<svg xmlns="http://www.w3.org/2000/svg" xmlns:xlink="http://www.w3.org/1999/xlink" width="2000" zoomAndPan="magnify" viewBox="0 0 1500 1499.999933" height="2000" preserveAspectRatio="xMidYMid meet" version="1.0"><defs><g/><clipPath id="4bc5d739de"><path d="M 945.34375 629.023438 L 1066 629.023438 L 1066 761 L 945.34375 761 Z M 945.34375 629.023438 " clip-rule="nonzero"/></clipPath><clipPath id="d5766ea106"><path d="M 1041.476562 757.183594 L 1120.011719 757.183594 L 1120.011719 870.839844 L 1041.476562 870.839844 Z M 1041.476562 757.183594 " clip-rule="nonzero"/></clipPath></defs><g clip-path="url(#4bc5d739de)"><path fill="#0097b2" d="M 1052.269531 701.191406 C 1049.1875 713.597656 1041.457031 724.058594 1030.503906 730.652344 C 1022.957031 735.195312 1014.503906 737.527344 1005.910156 737.523438 C 1002.039062 737.523438 998.136719 737.050781 994.28125 736.09375 C 981.875 733.011719 971.414062 725.28125 964.820312 714.328125 C 951.214844 691.71875 958.535156 662.253906 981.144531 648.644531 C 988.851562 644.007812 997.347656 641.800781 1005.746094 641.800781 C 1021.992188 641.800781 1037.855469 650.0625 1046.832031 664.96875 C 1053.421875 675.921875 1055.355469 688.785156 1052.269531 701.191406 Z M 1064.027344 704.113281 C 1065.90625 696.558594 1066.300781 688.832031 1065.207031 681.15625 C 1064.074219 673.203125 1061.378906 665.65625 1057.207031 658.722656 C 1053.035156 651.789062 1047.625 645.875 1041.128906 641.152344 C 1034.855469 636.589844 1027.847656 633.328125 1020.289062 631.449219 C 1012.730469 629.570312 1005.007812 629.175781 997.332031 630.269531 C 989.382812 631.402344 981.832031 634.09375 974.898438 638.269531 C 967.964844 642.441406 962.050781 647.851562 957.328125 654.347656 C 952.769531 660.621094 949.503906 667.628906 947.625 675.1875 C 945.746094 682.742188 945.351562 690.46875 946.445312 698.144531 C 947.582031 706.09375 950.269531 713.644531 954.445312 720.578125 C 958.617188 727.507812 964.027344 733.421875 970.523438 738.144531 C 976.796875 742.707031 983.804688 745.972656 991.363281 747.851562 C 996.140625 749.039062 1000.988281 749.632812 1005.847656 749.632812 C 1008.671875 749.632812 1011.5 749.433594 1014.320312 749.03125 C 1016.695312 748.691406 1019.035156 748.210938 1021.335938 747.597656 L 1025.933594 755.238281 L 1032.933594 751.023438 L 1038.816406 760.800781 L 1053.253906 752.105469 L 1047.371094 742.332031 L 1054.371094 738.121094 L 1049.773438 730.480469 C 1051.394531 728.738281 1052.910156 726.894531 1054.324219 724.953125 C 1058.882812 718.679688 1062.148438 711.671875 1064.027344 704.113281 " fill-opacity="1" fill-rule="nonzero"/></g><path fill="#0097b2" d="M 985.914062 656.570312 C 988.359375 655.652344 990.859375 654.992188 993.351562 654.609375 C 995.84375 654.21875 998.332031 654.101562 1000.757812 654.230469 C 998.464844 655.039062 996.300781 656.070312 994.308594 657.285156 C 992.3125 658.496094 990.484375 659.898438 988.84375 661.4375 L 985.914062 656.570312 " fill-opacity="1" fill-rule="nonzero"/><path fill="#0097b2" d="M 982.351562 716.652344 C 978.953125 714.007812 976 710.710938 973.71875 706.957031 C 971.421875 703.214844 969.789062 699.011719 968.960938 694.605469 L 968.8125 693.777344 C 968.765625 693.5 968.730469 693.222656 968.6875 692.949219 C 968.601562 692.390625 968.550781 691.832031 968.488281 691.273438 C 968.457031 690.992188 968.445312 690.710938 968.421875 690.433594 L 968.390625 690.011719 C 968.378906 689.867188 968.371094 689.730469 968.367188 689.585938 C 968.347656 689.027344 968.316406 688.460938 968.324219 687.894531 C 968.308594 686.765625 968.371094 685.632812 968.453125 684.5 L 968.542969 683.652344 L 968.585938 683.226562 L 968.761719 681.960938 L 968.902344 681.117188 C 969.292969 678.867188 969.910156 676.652344 970.703125 674.492188 C 970.792969 674.21875 970.910156 673.953125 971.011719 673.683594 C 971.125 673.417969 971.222656 673.144531 971.339844 672.882812 C 971.574219 672.355469 971.792969 671.820312 972.054688 671.300781 C 972.542969 670.253906 973.105469 669.242188 973.691406 668.234375 L 978.417969 671.378906 C 977.835938 672.179688 977.253906 672.988281 976.738281 673.839844 C 976.464844 674.261719 976.226562 674.699219 975.972656 675.128906 C 975.84375 675.34375 975.734375 675.570312 975.617188 675.789062 C 975.5 676.011719 975.375 676.230469 975.269531 676.457031 C 974.378906 678.25 973.617188 680.128906 973.054688 682.078125 L 972.84375 682.808594 L 972.660156 683.546875 L 972.566406 683.914062 L 972.324219 685.035156 C 972.140625 686.039062 971.96875 687.046875 971.871094 688.0625 C 971.808594 688.570312 971.78125 689.085938 971.742188 689.59375 C 971.730469 689.722656 971.722656 689.851562 971.71875 689.980469 L 971.707031 690.367188 C 971.699219 690.625 971.679688 690.878906 971.683594 691.136719 C 971.683594 691.652344 971.671875 692.167969 971.695312 692.679688 C 971.707031 692.941406 971.710938 693.199219 971.726562 693.457031 L 971.78125 694.230469 C 972.085938 698.351562 973.167969 702.460938 974.96875 706.285156 C 976.757812 710.113281 979.261719 713.648438 982.351562 716.652344 " fill-opacity="1" fill-rule="nonzero"/><g clip-path="url(#d5766ea106)"><path fill="#0097b2" d="M 1103.410156 862.964844 C 1102.550781 863.382812 1101.515625 863.046875 1101.066406 862.207031 L 1054.449219 780.253906 L 1103.558594 855.605469 C 1104.078125 856.453125 1104.980469 856.988281 1105.976562 857.039062 L 1114.703125 857.484375 Z M 1118.71875 854.710938 L 1056.382812 757.304688 L 1041.945312 765.996094 L 1098.835938 866.679688 C 1101.101562 870.691406 1106.234375 872.042969 1110.183594 869.667969 L 1116.050781 866.132812 C 1119.996094 863.757812 1121.203125 858.59375 1118.71875 854.710938 " fill-opacity="1" fill-rule="nonzero"/></g><g fill="#0097b2" fill-opacity="1"><g transform="translate(346.740578, 734.180533)"><g><path d="M 78.21875 2.25 C 64.875 2.25 52.804688 -0.648438 42.015625 -6.453125 C 31.222656 -12.253906 22.738281 -20.300781 16.5625 -30.59375 C 10.382812 -40.882812 7.296875 -52.519531 7.296875 -65.5 C 7.296875 -78.476562 10.382812 -90.113281 16.5625 -100.40625 C 22.738281 -110.695312 31.222656 -118.742188 42.015625 -124.546875 C 52.804688 -130.347656 64.9375 -133.25 78.40625 -133.25 C 89.757812 -133.25 100.019531 -131.25 109.1875 -127.25 C 118.363281 -123.257812 126.070312 -117.519531 132.3125 -110.03125 L 112.84375 -92.078125 C 103.988281 -102.304688 93.007812 -107.421875 79.90625 -107.421875 C 71.800781 -107.421875 64.566406 -105.640625 58.203125 -102.078125 C 51.835938 -98.523438 46.875 -93.566406 43.3125 -87.203125 C 39.757812 -80.835938 37.984375 -73.601562 37.984375 -65.5 C 37.984375 -57.382812 39.757812 -50.144531 43.3125 -43.78125 C 46.875 -37.425781 51.835938 -32.46875 58.203125 -28.90625 C 64.566406 -25.351562 71.800781 -23.578125 79.90625 -23.578125 C 93.007812 -23.578125 103.988281 -28.753906 112.84375 -39.109375 L 132.3125 -21.140625 C 126.070312 -13.535156 118.332031 -7.734375 109.09375 -3.734375 C 99.863281 0.253906 89.570312 2.25 78.21875 2.25 Z M 78.21875 2.25 "/></g></g></g><g fill="#0097b2" fill-opacity="1"><g transform="translate(483.911726, 734.180533)"><g><path d="M 141.484375 -131 L 84.78125 0 L 54.828125 0 L -1.6875 -131 L 31.0625 -131 L 70.921875 -37.421875 L 111.34375 -131 Z M 141.484375 -131 "/></g></g></g><g fill="#0097b2" fill-opacity="1"><g transform="translate(623.515664, 734.180533)"><g><path d="M 112.09375 -49.96875 C 112.09375 -49.59375 111.90625 -46.972656 111.53125 -42.109375 L 35.375 -42.109375 C 36.738281 -35.867188 39.976562 -30.9375 45.09375 -27.3125 C 50.21875 -23.695312 56.582031 -21.890625 64.1875 -21.890625 C 69.425781 -21.890625 74.070312 -22.671875 78.125 -24.234375 C 82.1875 -25.796875 85.960938 -28.257812 89.453125 -31.625 L 104.984375 -14.78125 C 95.503906 -3.925781 81.65625 1.5 63.4375 1.5 C 52.082031 1.5 42.039062 -0.710938 33.3125 -5.140625 C 24.582031 -9.578125 17.84375 -15.722656 13.09375 -23.578125 C 8.351562 -31.441406 5.984375 -40.363281 5.984375 -50.34375 C 5.984375 -60.195312 8.320312 -69.082031 13 -77 C 17.6875 -84.925781 24.113281 -91.101562 32.28125 -95.53125 C 40.457031 -99.957031 49.597656 -102.171875 59.703125 -102.171875 C 69.554688 -102.171875 78.472656 -100.050781 86.453125 -95.8125 C 94.441406 -91.570312 100.710938 -85.488281 105.265625 -77.5625 C 109.816406 -69.644531 112.09375 -60.445312 112.09375 -49.96875 Z M 59.890625 -80.09375 C 53.273438 -80.09375 47.722656 -78.222656 43.234375 -74.484375 C 38.742188 -70.742188 36 -65.628906 35 -59.140625 L 84.59375 -59.140625 C 83.59375 -65.503906 80.84375 -70.585938 76.34375 -74.390625 C 71.851562 -78.191406 66.367188 -80.09375 59.890625 -80.09375 Z M 59.890625 -80.09375 "/></g></g></g><g fill="#0097b2" fill-opacity="1"><g transform="translate(741.598883, 734.180533)"><g><path d="M 112.09375 -49.96875 C 112.09375 -49.59375 111.90625 -46.972656 111.53125 -42.109375 L 35.375 -42.109375 C 36.738281 -35.867188 39.976562 -30.9375 45.09375 -27.3125 C 50.21875 -23.695312 56.582031 -21.890625 64.1875 -21.890625 C 69.425781 -21.890625 74.070312 -22.671875 78.125 -24.234375 C 82.1875 -25.796875 85.960938 -28.257812 89.453125 -31.625 L 104.984375 -14.78125 C 95.503906 -3.925781 81.65625 1.5 63.4375 1.5 C 52.082031 1.5 42.039062 -0.710938 33.3125 -5.140625 C 24.582031 -9.578125 17.84375 -15.722656 13.09375 -23.578125 C 8.351562 -31.441406 5.984375 -40.363281 5.984375 -50.34375 C 5.984375 -60.195312 8.320312 -69.082031 13 -77 C 17.6875 -84.925781 24.113281 -91.101562 32.28125 -95.53125 C 40.457031 -99.957031 49.597656 -102.171875 59.703125 -102.171875 C 69.554688 -102.171875 78.472656 -100.050781 86.453125 -95.8125 C 94.441406 -91.570312 100.710938 -85.488281 105.265625 -77.5625 C 109.816406 -69.644531 112.09375 -60.445312 112.09375 -49.96875 Z M 59.890625 -80.09375 C 53.273438 -80.09375 47.722656 -78.222656 43.234375 -74.484375 C 38.742188 -70.742188 36 -65.628906 35 -59.140625 L 84.59375 -59.140625 C 83.59375 -65.503906 80.84375 -70.585938 76.34375 -74.390625 C 71.851562 -78.191406 66.367188 -80.09375 59.890625 -80.09375 Z M 59.890625 -80.09375 "/></g></g></g><g fill="#0097b2" fill-opacity="1"><g transform="translate(859.682125, 734.180533)"><g><path d="M 78.40625 -4.859375 C 75.539062 -2.742188 72.015625 -1.15625 67.828125 -0.09375 C 63.648438 0.96875 59.253906 1.5 54.640625 1.5 C 42.660156 1.5 33.394531 -1.554688 26.84375 -7.671875 C 20.300781 -13.785156 17.03125 -22.769531 17.03125 -34.625 L 17.03125 -75.984375 L 1.5 -75.984375 L 1.5 -98.4375 L 17.03125 -98.4375 L 17.03125 -122.953125 L 46.21875 -122.953125 L 46.21875 -98.4375 L 71.296875 -98.4375 L 71.296875 -75.984375 L 46.21875 -75.984375 L 46.21875 -35 C 46.21875 -30.75 47.3125 -27.46875 49.5 -25.15625 C 51.6875 -22.851562 54.773438 -21.703125 58.765625 -21.703125 C 63.378906 -21.703125 67.304688 -22.953125 70.546875 -25.453125 Z M 78.40625 -4.859375 "/></g></g></g></svg>